<svg aria-hidden="true" style="position: absolute; width: 0; height: 0; overflow: hidden;" version="1.1" xmlns="http://www.w3.org/2000/svg" xmlns:xlink="http://www.w3.org/1999/xlink">
<defs>
<symbol id="icon-cloud-computing" viewBox="0 0 32 32">
<path d="M29.57 10.757c0.1-0.534 0.15-1.077 0.151-1.621-0.006-5.050-4.105-9.139-9.155-9.133-3.844 0.005-7.275 2.413-8.585 6.027-2.346-0.934-5.005 0.211-5.939 2.557-0.081 0.203-0.147 0.412-0.198 0.624-3.746 0.56-6.328 4.051-5.768 7.797 0.502 3.359 3.388 5.845 6.785 5.843h5.715c0.631 0 1.143-0.512 1.143-1.143s-0.512-1.143-1.143-1.143h-5.715c-2.525 0-4.572-2.047-4.572-4.572s2.047-4.572 4.572-4.572c0.631 0 1.143-0.512 1.143-1.143 0.002-1.262 1.027-2.284 2.29-2.282 0.597 0.001 1.17 0.236 1.596 0.653 0.45 0.443 1.173 0.438 1.616-0.012 0.166-0.169 0.276-0.385 0.314-0.619 0.62-3.732 4.149-6.255 7.881-5.635s6.255 4.149 5.635 7.881c-0.037 0.223-0.085 0.443-0.144 0.661-0.131 0.477 0.059 0.985 0.472 1.257 2.104 1.396 2.678 4.233 1.282 6.337-0.845 1.273-2.27 2.040-3.799 2.044h-3.429c-0.631 0-1.143 0.512-1.143 1.143s0.512 1.143 1.143 1.143h3.429c3.787-0.004 6.855-3.077 6.851-6.864-0.002-2.016-0.891-3.929-2.43-5.23z"></path>
<path d="M23.645 24.33c-0.443-0.428-1.145-0.428-1.588 0l-3.766 3.764v-16.671c0-0.631-0.512-1.143-1.143-1.143s-1.143 0.512-1.143 1.143v16.671l-3.764-3.764c-0.454-0.439-1.178-0.426-1.616 0.028-0.428 0.443-0.428 1.145 0 1.588l5.715 5.715c0.446 0.447 1.169 0.448 1.616 0.002 0.001-0.001 0.001-0.001 0.002-0.002l5.715-5.715c0.439-0.454 0.426-1.178-0.028-1.616z"></path>
</symbol>
<symbol id="icon-comment" viewBox="0 0 32 32">
<path d="M26.86 2.156h-21.751c-2.274 0-4.124 1.85-4.124 4.124v13.311c0 2.269 1.842 4.116 4.11 4.124v6.040l8.681-6.040h13.085c2.274 0 4.124-1.85 4.124-4.124v-13.311c0-2.275-1.85-4.124-4.124-4.124zM29.227 19.592c0 1.305-1.062 2.367-2.367 2.367h-13.636l-6.372 4.434v-4.434h-1.743c-1.305 0-2.367-1.062-2.367-2.367v-13.311c0-1.305 1.062-2.367 2.367-2.367h21.751c1.305 0 2.367 1.061 2.367 2.367z"></path>
<path d="M9.014 8.367h13.941v1.758h-13.941z"></path>
<path d="M9.014 12.117h13.941v1.758h-13.941z"></path>
<path d="M9.014 15.867h13.941v1.758h-13.941z"></path>
</symbol>
<symbol id="icon-visibility-svgrepo-com" viewBox="0 0 32 32">
<path d="M31.642 15.118c-4.151-4.628-9.726-7.21-15.642-7.21s-11.491 2.582-15.642 7.21c-0.477 0.477-0.477 1.294 0 1.765 4.151 4.628 9.726 7.21 15.642 7.21s11.491-2.517 15.642-7.21c0.477-0.477 0.477-1.288 0-1.765zM16 19.876c-2.111 0-3.876-1.765-3.876-3.876s1.765-3.876 3.876-3.876 3.876 1.765 3.876 3.876-1.765 3.876-3.876 3.876zM11.692 11.098c-1.36 1.196-2.222 2.948-2.222 4.902s0.856 3.706 2.222 4.902c-3.131-0.797-6.033-2.458-8.478-4.902 2.445-2.445 5.347-4.112 8.478-4.902zM20.308 20.902c1.36-1.196 2.222-2.948 2.222-4.902s-0.856-3.706-2.222-4.902c3.131 0.797 6.033 2.458 8.478 4.902-2.445 2.445-5.347 4.112-8.478 4.902z"></path>
</symbol>
<symbol id="icon-thumbs-up" viewBox="0 0 32 32">
<path d="M29.826 17.885c0.628-0.949 0.942-1.994 0.942-3.135 0-1.321-0.487-2.468-1.461-3.443-0.975-0.974-2.128-1.461-3.462-1.461h-3.385c0.615-1.269 0.923-2.5 0.923-3.692 0-1.5-0.225-2.692-0.673-3.577s-1.103-1.535-1.962-1.952c-0.859-0.417-1.827-0.625-2.904-0.625-0.654 0-1.231 0.237-1.731 0.712-0.551 0.538-0.949 1.231-1.192 2.077s-0.439 1.657-0.587 2.433c-0.147 0.776-0.375 1.324-0.683 1.644-0.628 0.679-1.314 1.5-2.058 2.462-1.295 1.679-2.173 2.673-2.634 2.981h-5.269c-0.679 0-1.26 0.241-1.74 0.721s-0.721 1.061-0.721 1.74v12.307c0 0.68 0.24 1.259 0.721 1.74s1.061 0.721 1.74 0.721h5.538c0.282 0 1.167 0.256 2.654 0.769 1.577 0.551 2.965 0.971 4.163 1.26s2.413 0.433 3.644 0.433h2.481c1.808 0 3.262-0.516 4.365-1.548s1.647-2.439 1.635-4.221c0.769-0.987 1.154-2.128 1.154-3.423 0-0.282-0.019-0.558-0.058-0.827 0.487-0.859 0.731-1.782 0.731-2.769-0-0.462-0.058-0.904-0.173-1.327zM5.789 26.711c-0.244 0.243-0.532 0.366-0.865 0.366s-0.622-0.122-0.865-0.366c-0.244-0.243-0.365-0.532-0.365-0.866s0.122-0.622 0.365-0.865c0.244-0.244 0.532-0.365 0.865-0.365s0.622 0.122 0.865 0.365c0.244 0.244 0.365 0.532 0.365 0.865s-0.122 0.622-0.365 0.866zM27.894 16.328c-0.276 0.59-0.619 0.891-1.029 0.904 0.192 0.218 0.353 0.523 0.481 0.913s0.192 0.747 0.192 1.067c0 0.884-0.339 1.647-1.019 2.288 0.231 0.41 0.346 0.853 0.346 1.327s-0.112 0.946-0.337 1.413c-0.224 0.467-0.529 0.804-0.913 1.009 0.064 0.385 0.096 0.744 0.096 1.077 0 2.141-1.231 3.211-3.693 3.211h-2.326c-1.68 0-3.872-0.468-6.577-1.404-0.064-0.026-0.25-0.093-0.558-0.202s-0.535-0.189-0.683-0.24c-0.148-0.052-0.372-0.125-0.673-0.221s-0.545-0.167-0.731-0.212c-0.186-0.045-0.397-0.086-0.634-0.125s-0.439-0.058-0.606-0.058h-0.615v-12.307h0.615c0.205 0 0.433-0.058 0.683-0.173s0.507-0.288 0.769-0.519c0.263-0.231 0.509-0.458 0.74-0.683s0.487-0.506 0.769-0.846c0.282-0.34 0.503-0.612 0.663-0.817s0.362-0.468 0.606-0.789c0.243-0.32 0.391-0.513 0.442-0.577 0.705-0.872 1.199-1.455 1.481-1.75 0.526-0.551 0.907-1.253 1.144-2.106s0.433-1.657 0.586-2.413c0.154-0.756 0.398-1.301 0.731-1.635 1.23 0 2.051 0.301 2.461 0.904s0.615 1.532 0.615 2.788c0 0.756-0.308 1.785-0.923 3.086s-0.923 2.324-0.923 3.067h6.769c0.642 0 1.212 0.247 1.712 0.741s0.751 1.067 0.751 1.721c-0 0.449-0.138 0.968-0.414 1.558z"></path>
</symbol>
</defs>
</svg>
